<svg width="169" height="166" viewBox="0 0 169 166" fill="none" xmlns="http://www.w3.org/2000/svg">
<path fill-rule="evenodd" clip-rule="evenodd" d="M42.0275 22.2584C59.0555 16.6795 76.2629 27.1566 81.0426 44.1193C84.2994 55.6781 81.215 67.7983 73.6936 76.0976C75.2341 78.0572 76.9173 79.9414 78.7446 81.7376C80.5631 83.5251 82.4698 85.1722 84.4523 86.6802C92.8986 79.234 105.275 76.1703 117.077 79.3833C134.343 84.0842 144.989 100.999 139.318 117.724C135.598 128.698 128.66 135.366 119.407 137.56C110.809 139.599 101.538 137.432 93.3623 134.093C76.8949 127.369 60.6344 114.125 53.2082 106.825C45.6068 99.3527 32.1811 83.3578 25.3977 67.2132C22.0292 59.1961 19.8602 50.1242 21.9412 41.7178C24.1799 32.6736 30.9333 25.8929 42.0275 22.2584ZM67.4695 47.8092C64.5635 37.4959 54.9078 32.621 46.4836 35.381C39.0786 37.8069 36.5102 41.4132 35.6258 44.986C34.5835 49.1966 35.4899 54.9719 38.4159 61.9358C44.2215 75.7533 56.2619 90.256 63.1703 97.0468C69.9116 103.673 84.6607 115.559 98.7682 121.32C105.88 124.223 111.788 125.136 116.101 124.113C119.758 123.246 123.463 120.708 125.956 113.353C128.769 105.059 123.798 95.5681 113.315 92.7141C105.514 90.5901 97.4928 93.0509 92.7193 98.0725C89.6369 101.315 83.761 103.164 78.7618 99.736C75.2444 97.3243 71.9038 94.5838 68.7825 91.5156C65.6562 88.4425 62.8649 85.1534 60.4093 81.6906C56.9418 76.8011 58.792 71.052 62.0694 68.0172C67.1438 63.3182 69.6244 55.4569 67.4695 47.8092Z" fill="white"/>
</svg>
